<?xml version="1.0" encoding="UTF-8"?>
<svg xmlns="http://www.w3.org/2000/svg" xmlns:xlink="http://www.w3.org/1999/xlink" width="32px" height="32px" viewBox="0 0 32 32" version="1.1">
<g id="surface1">
<path style=" stroke:none;fill-rule:nonzero;fill:rgb(0%,0%,0%);fill-opacity:1;" d="M 28.691406 1.386719 C 28.792969 1.453125 28.890625 1.519531 28.992188 1.585938 C 29.738281 2.308594 29.984375 3.222656 30.011719 4.238281 C 29.855469 9.296875 26.148438 14.324219 23.253906 18.238281 C 23.339844 18.402344 23.339844 18.402344 23.429688 18.566406 C 24.378906 20.378906 24.746094 22.027344 24.140625 24.046875 C 23.699219 25.242188 22.945312 26.085938 22.078125 26.988281 C 21.953125 27.128906 21.828125 27.269531 21.707031 27.414062 C 21.394531 27.773438 21.070312 28.128906 20.746094 28.480469 C 20.359375 28.898438 19.980469 29.320312 19.609375 29.753906 C 19.277344 30.128906 18.933594 30.5 18.59375 30.867188 C 18.359375 31.132812 18.136719 31.402344 17.921875 31.679688 C 17.101562 31.480469 16.652344 30.660156 16.238281 29.988281 C 15.859375 29.308594 15.609375 28.679688 15.542969 27.902344 C 15.460938 27.003906 15.292969 26.570312 14.601562 25.972656 C 14.535156 25.917969 14.46875 25.867188 14.398438 25.8125 C 14.335938 25.902344 14.269531 25.992188 14.199219 26.085938 C 12.230469 28.742188 9.421875 29.636719 6.257812 30.117188 C 4.914062 30.3125 3.597656 30.417969 2.238281 30.398438 C 1.953125 26.980469 1.753906 22.328125 3.949219 19.445312 C 4.585938 18.703125 5.273438 18.046875 6.078125 17.492188 C 5.328125 16.570312 4.773438 16.214844 3.621094 15.984375 C 2.546875 15.769531 1.722656 15.15625 0.960938 14.398438 C 1.101562 14.089844 1.25 13.871094 1.492188 13.632812 C 1.554688 13.570312 1.617188 13.507812 1.679688 13.441406 C 1.777344 13.347656 1.777344 13.347656 1.878906 13.246094 C 1.949219 13.179688 2.015625 13.113281 2.085938 13.042969 C 2.476562 12.660156 2.875 12.289062 3.292969 11.9375 C 3.613281 11.648438 3.910156 11.34375 4.214844 11.039062 C 4.652344 10.597656 5.089844 10.164062 5.566406 9.765625 C 5.699219 9.652344 5.828125 9.53125 5.957031 9.410156 C 7.132812 8.300781 8.628906 7.84375 10.222656 7.847656 C 11.234375 7.878906 12.167969 8.210938 13.121094 8.535156 C 13.179688 8.476562 13.238281 8.421875 13.300781 8.363281 C 16.136719 5.761719 24.570312 -1.441406 28.695312 1.386719 Z M 23.285156 4.808594 C 23.195312 4.851562 23.101562 4.898438 23.007812 4.945312 C 22.5625 5.167969 22.191406 5.371094 21.867188 5.761719 C 22.871094 6.695312 22.871094 6.695312 23.898438 7.601562 C 24.058594 7.746094 24.21875 7.890625 24.375 8.039062 C 24.515625 8.167969 24.515625 8.167969 24.660156 8.300781 C 24.746094 8.378906 24.832031 8.460938 24.917969 8.542969 C 25.175781 8.746094 25.398438 8.855469 25.707031 8.960938 C 26.847656 6.496094 26.847656 6.496094 27.199219 3.839844 C 27.035156 3.675781 26.882812 3.703125 26.652344 3.691406 C 25.449219 3.714844 24.34375 4.285156 23.285156 4.808594 Z M 19.308594 7.253906 C 18.265625 7.972656 17.273438 8.742188 16.300781 9.546875 C 16.035156 9.765625 15.765625 9.984375 15.5 10.199219 C 15.0625 10.558594 14.632812 10.917969 14.199219 11.28125 C 14.144531 11.328125 14.085938 11.375 14.027344 11.425781 C 13.667969 11.726562 13.347656 12.039062 13.011719 12.375 C 15.089844 14.449219 17.167969 16.527344 19.304688 18.667969 C 19.742188 18.238281 19.742188 18.238281 20.121094 17.78125 C 20.167969 17.71875 20.214844 17.65625 20.265625 17.589844 C 20.34375 17.484375 20.34375 17.484375 20.421875 17.378906 C 20.476562 17.304688 20.53125 17.234375 20.585938 17.15625 C 21.664062 15.699219 22.707031 14.214844 23.664062 12.675781 C 23.75 12.542969 23.832031 12.410156 23.921875 12.277344 C 24.160156 11.921875 24.160156 11.921875 24.171875 11.507812 C 23.933594 11.230469 23.675781 10.984375 23.398438 10.738281 C 23.34375 10.6875 23.285156 10.636719 23.226562 10.582031 C 22.847656 10.246094 22.46875 9.910156 22.085938 9.578125 C 21.8125 9.339844 21.546875 9.097656 21.28125 8.851562 C 20.753906 8.375 20.753906 8.375 20.226562 7.898438 C 20.132812 7.816406 20.132812 7.816406 20.039062 7.730469 C 19.804688 7.546875 19.5625 7.402344 19.304688 7.253906 Z M 8.859375 10.832031 C 8.066406 11.191406 7.535156 11.730469 6.941406 12.355469 C 6.640625 12.675781 6.316406 12.953125 5.972656 13.226562 C 6.042969 13.261719 6.113281 13.296875 6.1875 13.332031 C 7.457031 12.90625 8.371094 11.8125 9.28125 10.878906 C 9.074219 10.746094 9.074219 10.746094 8.859375 10.832031 Z M 10.113281 14.792969 C 9.667969 15.210938 9.21875 15.613281 8.746094 16 C 9.160156 16.496094 9.589844 16.964844 10.046875 17.417969 C 10.109375 17.480469 10.171875 17.542969 10.234375 17.609375 C 10.441406 17.8125 10.644531 18.015625 10.847656 18.21875 C 10.992188 18.363281 11.132812 18.503906 11.277344 18.648438 C 11.648438 19.019531 12.023438 19.390625 12.398438 19.765625 C 12.78125 20.144531 13.160156 20.527344 13.542969 20.90625 C 14.289062 21.65625 15.039062 22.402344 15.785156 23.148438 C 16.214844 23.003906 16.375 22.722656 16.632812 22.375 C 16.726562 22.25 16.816406 22.128906 16.910156 22.003906 C 16.953125 21.945312 16.996094 21.886719 17.042969 21.824219 C 17.222656 21.585938 17.410156 21.351562 17.601562 21.121094 C 17.425781 20.675781 17.101562 20.378906 16.765625 20.046875 C 16.703125 19.984375 16.640625 19.921875 16.574219 19.855469 C 16.367188 19.644531 16.15625 19.4375 15.945312 19.226562 C 15.800781 19.082031 15.65625 18.9375 15.511719 18.792969 C 15.207031 18.488281 14.902344 18.183594 14.597656 17.882812 C 14.203125 17.492188 13.8125 17.101562 13.421875 16.710938 C 13.121094 16.410156 12.824219 16.109375 12.523438 15.8125 C 12.378906 15.667969 12.234375 15.523438 12.089844 15.378906 C 11.890625 15.179688 11.6875 14.976562 11.484375 14.777344 C 11.425781 14.71875 11.367188 14.65625 11.304688 14.59375 C 10.71875 14.015625 10.660156 14.28125 10.113281 14.792969 Z M 6.597656 20.691406 C 4.988281 22.4375 4.96875 25.183594 4.90625 27.414062 C 7.0625 27.371094 9.648438 26.800781 11.226562 25.257812 C 11.644531 24.804688 12.023438 24.355469 12.265625 23.785156 C 12.144531 23.445312 11.941406 23.222656 11.6875 22.96875 C 11.613281 22.894531 11.539062 22.820312 11.460938 22.742188 C 11.382812 22.664062 11.300781 22.582031 11.21875 22.5 C 11.136719 22.417969 11.054688 22.335938 10.96875 22.253906 C 10.796875 22.078125 10.621094 21.90625 10.449219 21.734375 C 10.179688 21.464844 9.914062 21.199219 9.644531 20.933594 C 9.476562 20.765625 9.308594 20.597656 9.140625 20.429688 C 9.019531 20.308594 9.019531 20.308594 8.894531 20.183594 C 8.820312 20.113281 8.746094 20.039062 8.671875 19.960938 C 8.605469 19.898438 8.539062 19.832031 8.472656 19.765625 C 8.015625 19.351562 6.953125 20.363281 6.597656 20.695312 Z M 21.546875 21.972656 C 21.402344 22.125 21.261719 22.28125 21.121094 22.441406 C 20.785156 22.816406 20.445312 23.191406 20.105469 23.566406 C 18.730469 25.070312 18.730469 25.070312 18.238281 26.988281 C 18.65625 26.683594 18.980469 26.339844 19.3125 25.949219 C 19.535156 25.6875 19.769531 25.433594 20 25.179688 C 20.160156 25 20.320312 24.820312 20.480469 24.640625 C 20.550781 24.5625 20.621094 24.480469 20.691406 24.398438 C 21.277344 23.699219 21.695312 22.90625 21.652344 21.972656 C 21.617188 21.972656 21.582031 21.972656 21.546875 21.972656 Z M 21.546875 21.972656 "/>
</g>
</svg>
