<?xml version="1.0" encoding="UTF-8"?>
<svg xmlns="http://www.w3.org/2000/svg" xmlns:xlink="http://www.w3.org/1999/xlink" width="150px" height="146px" viewBox="0 0 150 146" version="1.1">
<g id="surface1">
<path style=" stroke:none;fill-rule:nonzero;fill:rgb(30.980393%,30.980393%,30.980393%);fill-opacity:1;" d="M 70.488281 8.898438 L 80.714844 8.898438 L 80.8125 9.199219 L 83.621094 9.300781 L 84.324219 9.5 L 85.125 9.5 L 86.328125 9.804688 L 87.03125 9.804688 L 87.832031 10.105469 L 88.535156 10.105469 L 89.335938 10.40625 L 90.238281 10.609375 L 90.742188 10.808594 L 91.644531 11.011719 L 93.046875 11.414062 L 93.949219 11.714844 L 94.851562 11.914062 L 96.15625 12.519531 L 97.960938 13.121094 L 99.261719 13.726562 L 103.273438 15.636719 L 105.277344 16.742188 L 106.582031 17.546875 L 110.492188 20.160156 L 111.796875 21.164062 L 113.402344 22.371094 L 113.703125 22.671875 L 113.703125 22.875 L 114.101562 23.074219 L 115.40625 24.082031 L 121.320312 30.015625 L 122.222656 31.21875 L 123.125 32.226562 L 124.429688 34.035156 L 125.132812 34.839844 L 125.832031 36.046875 L 126.636719 37.152344 L 127.738281 39.0625 L 128.339844 39.96875 L 129.140625 41.375 L 129.84375 42.984375 L 131.148438 45.699219 L 132.25 48.414062 L 132.75 50.125 L 133.351562 51.734375 L 133.652344 52.636719 L 133.855469 53.644531 L 134.457031 56.359375 L 134.65625 57.964844 L 134.855469 58.367188 L 134.957031 59.273438 L 134.757812 59.878906 L 134.457031 59.976562 L 134.355469 60.277344 L 134.15625 60.378906 L 128.140625 60.378906 L 127.9375 59.976562 L 127.539062 59.777344 L 127.335938 59.273438 L 127.335938 58.367188 L 127.035156 57.867188 L 127.136719 57.261719 L 126.835938 56.660156 L 126.835938 56.257812 L 126.734375 55.652344 L 126.535156 55.351562 L 126.234375 54.449219 L 125.933594 53.242188 L 125.433594 52.335938 L 125.230469 51.429688 L 124.628906 49.820312 L 123.828125 48.011719 L 123.027344 46.402344 L 121.921875 44.292969 L 120.621094 42.078125 L 120.21875 41.578125 L 119.617188 40.472656 L 118.011719 38.257812 L 117.914062 37.957031 L 117.109375 37.253906 L 116.710938 36.449219 L 115.40625 35.242188 L 115.304688 34.640625 L 115.003906 34.539062 L 114.503906 34.035156 L 114.503906 33.835938 L 114.101562 33.632812 L 113.703125 33.230469 L 113.703125 33.03125 L 113.5 33.03125 L 112.796875 32.226562 L 112.097656 31.621094 L 111.394531 30.816406 L 109.789062 29.308594 L 108.6875 28.503906 L 107.886719 27.800781 L 106.582031 26.796875 L 105.980469 26.394531 L 105.480469 25.890625 L 104.277344 25.289062 L 103.574219 24.886719 L 102.371094 23.980469 L 101.769531 23.578125 L 101.367188 23.476562 L 99.164062 22.273438 L 98.058594 21.769531 L 95.855469 20.664062 L 95.453125 20.359375 L 94.652344 20.261719 L 93.847656 19.757812 L 93.046875 19.65625 L 92.042969 19.054688 L 90.238281 18.449219 L 88.535156 18.046875 L 88.132812 17.949219 L 86.828125 17.546875 L 85.023438 17.042969 L 83.722656 16.84375 L 82.71875 16.742188 L 82.117188 16.742188 L 82.117188 16.539062 L 79.410156 16.441406 L 78.707031 16.441406 L 78.40625 16.136719 L 72.691406 16.136719 L 72.691406 16.441406 L 69.984375 16.441406 L 69.585938 16.742188 L 67.679688 16.742188 L 67.480469 16.941406 L 66.878906 17.042969 L 66.074219 17.042969 L 65.875 17.246094 L 64.871094 17.34375 L 64.472656 17.445312 L 64.171875 17.644531 L 63.167969 17.847656 L 62.664062 18.046875 L 61.863281 18.148438 L 61.863281 18.351562 L 60.960938 18.351562 L 60.257812 18.652344 L 58.855469 19.054688 L 58.65625 19.253906 L 57.453125 19.65625 L 56.75 19.859375 L 55.847656 20.261719 L 54.34375 20.863281 L 52.640625 21.769531 L 50.734375 22.671875 L 48.730469 23.78125 L 47.726562 24.382812 L 47.226562 24.785156 L 45.519531 25.890625 L 44.617188 26.496094 L 43.414062 27.398438 L 42.8125 27.902344 L 42.613281 27.902344 L 42.613281 28.101562 L 42.011719 28.503906 L 40.808594 29.613281 L 40.105469 30.417969 L 39.503906 30.617188 L 38.703125 31.421875 L 38.402344 31.824219 L 38.203125 31.824219 L 38.203125 32.023438 L 37.398438 32.730469 L 36.996094 33.132812 L 36.796875 33.734375 L 35.996094 34.4375 L 34.589844 35.847656 L 34.089844 36.648438 L 33.6875 37.152344 L 33.1875 37.65625 L 32.988281 38.160156 L 32.785156 38.160156 L 32.585938 38.5625 L 32.285156 38.960938 L 31.984375 39.464844 L 31.484375 39.96875 L 31.28125 40.570312 L 30.882812 40.972656 L 30.078125 42.078125 L 29.980469 42.582031 L 29.277344 43.488281 L 27.773438 46.503906 L 26.671875 48.816406 L 26.371094 49.722656 L 25.566406 51.332031 L 25.066406 52.9375 L 24.363281 55.152344 L 24.0625 55.957031 L 23.863281 56.660156 L 23.5625 57.363281 L 23.460938 58.367188 L 23.261719 58.769531 L 23.261719 59.675781 L 22.558594 60.378906 L 16.34375 60.378906 L 16.042969 59.878906 L 16.042969 56.859375 L 16.242188 56.558594 L 16.445312 55.25 L 18.449219 48.714844 L 19.25 46.605469 L 19.851562 45.195312 L 20.253906 44.191406 L 21.859375 40.972656 L 22.460938 39.867188 L 22.960938 39.0625 L 23.460938 38.160156 L 24.464844 36.75 L 25.367188 35.34375 L 26.371094 33.933594 L 27.070312 32.929688 L 27.574219 32.425781 L 27.972656 31.925781 L 28.375 31.320312 L 28.976562 30.617188 L 29.578125 30.113281 L 29.980469 29.308594 L 30.480469 28.808594 L 31.683594 27.703125 L 32.386719 26.898438 L 33.386719 25.992188 L 34.089844 25.1875 L 35.09375 24.28125 L 35.59375 23.679688 L 36.195312 23.378906 L 37.199219 22.472656 L 38.300781 21.667969 L 39.105469 20.964844 L 40.609375 19.957031 L 41.410156 19.355469 L 42.914062 18.351562 L 43.414062 18.25 L 43.414062 18.046875 L 44.417969 17.445312 L 44.917969 17.042969 L 47.023438 16.039062 L 48.929688 15.03125 L 50.835938 14.128906 L 52.136719 13.421875 L 53.742188 12.820312 L 55.445312 12.316406 L 55.847656 12.015625 L 56.75 11.714844 L 57.351562 11.613281 L 57.652344 11.414062 L 58.355469 11.3125 L 58.753906 11.109375 L 59.355469 11.109375 L 60.660156 10.707031 L 60.960938 10.507812 L 61.964844 10.304688 L 62.363281 10.105469 L 63.269531 10.105469 L 63.46875 10.207031 L 63.667969 9.804688 L 65.074219 9.804688 L 65.171875 9.601562 L 65.875 9.5 L 67.378906 9.5 L 67.578125 9.300781 L 69.484375 9.199219 Z M 70.488281 8.898438 "/>
<path style=" stroke:none;fill-rule:nonzero;fill:rgb(30.980393%,30.980393%,30.980393%);fill-opacity:1;" d="M 89.839844 30.113281 L 95.152344 30.113281 L 96.054688 30.316406 L 96.355469 30.417969 L 97.257812 30.417969 L 97.859375 30.71875 L 98.460938 30.617188 L 99.0625 31.019531 L 99.765625 31.019531 L 100.464844 31.523438 L 100.765625 32.023438 L 100.765625 33.230469 L 100.265625 33.734375 L 99.261719 34.136719 L 98.5625 34.4375 L 97.660156 35.140625 L 96.554688 36.046875 L 96.253906 36.347656 L 96.054688 36.953125 L 95.652344 37.453125 L 94.953125 38.761719 L 94.449219 39.566406 L 94.050781 39.867188 L 93.847656 40.472656 L 93.046875 41.175781 L 92.445312 41.578125 L 91.34375 42.179688 L 90.539062 42.480469 L 90.441406 42.582031 L 87.128906 42.582031 L 86.527344 42.785156 L 85.625 42.882812 L 84.824219 43.285156 L 83.621094 44.492188 L 83.421875 45.398438 L 83.21875 45.800781 L 83.21875 46.804688 L 84.023438 46.503906 L 84.222656 46.402344 L 85.125 46.304688 L 85.527344 46 L 86.527344 45.597656 L 87.128906 45.195312 L 87.832031 43.890625 L 88.234375 43.488281 L 89.238281 43.488281 L 90.941406 44.292969 L 91.84375 45.097656 L 92.644531 46.203125 L 93.449219 47.8125 L 93.546875 47.910156 L 93.546875 51.832031 L 93.246094 52.035156 L 93.148438 52.9375 L 92.546875 53.84375 L 92.042969 54.449219 L 91.742188 55.050781 L 90.539062 55.855469 L 90.039062 56.359375 L 89.539062 56.660156 L 88.234375 57.464844 L 87.632812 57.765625 L 87.832031 58.769531 L 88.335938 60.078125 L 88.734375 60.882812 L 89.136719 62.289062 L 89.238281 62.492188 L 89.335938 63.394531 L 89.539062 63.699219 L 89.539062 67.519531 L 89.035156 68.625 L 88.433594 69.429688 L 87.632812 70.03125 L 87.332031 70.234375 L 86.328125 70.335938 L 83.320312 70.335938 L 82.417969 70.234375 L 81.617188 69.730469 L 80.3125 69.226562 L 79.511719 68.925781 L 78.808594 68.726562 L 78.207031 68.023438 L 77.503906 67.417969 L 77.003906 66.816406 L 76.703125 66.3125 L 76.601562 64.90625 L 76.402344 64.503906 L 76.402344 63.394531 L 76.601562 62.792969 L 76.703125 61.285156 L 77.304688 60.078125 L 77.804688 59.171875 L 79.710938 57.261719 L 81.214844 56.457031 L 81.015625 56.457031 L 80.714844 55.957031 L 78.105469 55.855469 L 77.304688 55.152344 L 77.304688 45.296875 L 77.707031 44.390625 L 78.207031 43.386719 L 78.609375 42.480469 L 79.410156 41.476562 L 80.011719 40.570312 L 80.511719 39.96875 L 80.714844 39.464844 L 81.316406 38.960938 L 81.515625 38.960938 L 81.617188 38.359375 L 82.015625 37.855469 L 82.617188 36.953125 L 83.320312 35.847656 L 84.023438 34.839844 L 84.324219 34.238281 L 86.828125 31.722656 L 87.03125 31.722656 L 87.03125 31.523438 L 88.035156 30.816406 L 88.9375 30.417969 Z M 54.945312 30.113281 L 60.859375 30.113281 L 62.363281 30.515625 L 63.269531 31.21875 L 63.871094 31.722656 L 64.472656 32.125 L 66.074219 33.734375 L 66.675781 34.640625 L 67.480469 35.746094 L 68.179688 36.449219 L 68.28125 36.851562 L 69.285156 38.257812 L 70.085938 39.566406 L 70.488281 40.167969 L 70.988281 40.671875 L 71.789062 41.777344 L 72.492188 42.785156 L 72.992188 43.589844 L 73.394531 44.492188 L 73.59375 45.097656 L 73.59375 55.25 L 72.992188 55.855469 L 70.6875 55.957031 L 69.984375 56.15625 L 69.683594 56.558594 L 70.1875 56.660156 L 71.589844 57.464844 L 72.089844 58.066406 L 72.894531 58.769531 L 73.394531 59.375 L 73.695312 59.976562 L 73.894531 60.179688 L 73.996094 61.082031 L 74.296875 61.285156 L 74.398438 62.289062 L 74.699219 62.492188 L 74.699219 65.40625 L 74.398438 65.910156 L 74.296875 66.613281 L 72.792969 68.121094 L 72.492188 68.625 L 70.1875 69.429688 L 68.082031 70.234375 L 67.679688 70.335938 L 64.070312 70.335938 L 63.769531 70.03125 L 62.765625 69.53125 L 61.964844 68.625 L 61.5625 68.023438 L 61.5625 67.21875 L 61.261719 66.714844 L 61.261719 64.601562 L 61.5625 64.199219 L 61.5625 62.691406 L 61.964844 61.988281 L 62.265625 61.386719 L 62.464844 60.480469 L 62.664062 59.777344 L 62.96875 59.273438 L 63.269531 58.066406 L 63.570312 57.5625 L 62.664062 57.363281 L 62.164062 56.761719 L 61.460938 56.660156 L 60.558594 55.957031 L 58.355469 53.742188 L 58.355469 53.542969 L 58.152344 53.542969 L 57.652344 52.035156 L 57.453125 51.734375 L 57.453125 48.214844 L 57.753906 46.804688 L 58.453125 45.902344 L 59.457031 44.894531 L 59.859375 44.390625 L 60.761719 43.789062 L 61.261719 43.488281 L 62.363281 43.488281 L 63.167969 44.191406 L 63.871094 45.195312 L 64.371094 45.699219 L 65.273438 46.101562 L 65.976562 46.304688 L 66.878906 46.402344 L 67.277344 46.605469 L 67.78125 46.605469 L 67.878906 45.800781 L 67.679688 44.996094 L 67.277344 44.390625 L 66.074219 43.1875 L 65.171875 42.984375 L 64.671875 42.882812 L 63.871094 42.582031 L 60.859375 42.582031 L 60.660156 42.28125 L 59.65625 42.179688 L 58.855469 41.777344 L 58.453125 41.476562 L 57.851562 41.175781 L 57.753906 40.875 L 57.550781 40.875 L 57.550781 40.671875 L 57.25 40.570312 L 57.152344 39.867188 L 56.75 39.667969 L 56.25 39.164062 L 55.847656 38.460938 L 55.746094 37.855469 L 55.347656 37.65625 L 54.746094 36.550781 L 54.042969 35.746094 L 53.941406 35.445312 L 53.542969 35.242188 L 52.839844 34.640625 L 52.4375 34.4375 L 52.4375 34.238281 L 51.835938 34.035156 L 51.335938 34.035156 L 50.433594 33.433594 L 50.332031 33.332031 L 50.332031 31.925781 L 50.835938 31.21875 L 51.835938 30.917969 L 52.136719 30.617188 L 53.039062 30.617188 L 53.339844 30.316406 L 54.242188 30.417969 L 54.445312 30.214844 Z M 94.148438 72.546875 L 95.453125 72.546875 L 95.753906 72.746094 L 96.253906 74.054688 L 96.457031 74.757812 L 96.457031 75.460938 L 96.757812 75.863281 L 96.757812 82.601562 L 96.457031 83.105469 L 96.355469 84.007812 L 96.054688 84.914062 L 95.753906 86.019531 L 95.351562 86.625 L 94.75 87.828125 L 94.449219 88.230469 L 94.25 88.230469 L 94.25 88.734375 L 91.34375 91.652344 L 91.140625 91.652344 L 91.140625 91.851562 L 90.941406 91.851562 L 90.742188 92.253906 L 89.839844 93.160156 L 89.335938 93.359375 L 88.234375 94.0625 L 85.925781 95.167969 L 85.527344 95.371094 L 85.425781 129.558594 L 84.824219 130.5625 L 84.523438 131.167969 L 84.324219 131.167969 L 84.324219 131.367188 L 84.121094 131.367188 L 84.121094 131.570312 L 83.019531 132.273438 L 81.414062 133.882812 L 80.414062 135.488281 L 79.710938 136.898438 L 79.511719 137.097656 L 78.105469 137.097656 L 77.707031 136.796875 L 77.605469 135.792969 L 77.605469 91.75 L 78.207031 90.746094 L 78.609375 89.839844 L 79.308594 89.035156 L 80.011719 88.332031 L 80.613281 87.628906 L 81.515625 87.125 L 82.316406 86.625 L 83.21875 86.320312 L 83.921875 86.222656 L 84.324219 85.917969 L 85.125 85.820312 L 85.226562 85.71875 L 86.128906 85.617188 L 87.632812 84.8125 L 87.832031 84.613281 L 88.535156 84.511719 L 89.539062 83.910156 L 90.339844 83.203125 L 91.242188 82.300781 L 92.34375 80.589844 L 93.148438 78.679688 L 93.347656 77.574219 L 93.546875 77.171875 L 93.648438 72.949219 Z M 55.648438 72.546875 L 56.949219 72.546875 L 57.453125 73.050781 L 57.550781 77.574219 L 57.753906 77.976562 L 57.953125 79.28125 L 58.355469 80.390625 L 58.957031 81.195312 L 59.859375 82.601562 L 60.460938 83.304688 L 61.5625 84.007812 L 61.761719 84.210938 L 62.464844 84.511719 L 63.570312 85.113281 L 64.269531 85.316406 L 65.675781 85.820312 L 66.375 86.019531 L 68.179688 86.625 L 69.785156 87.425781 L 70.789062 88.03125 L 72.089844 89.339844 L 73.09375 90.847656 L 73.394531 91.75 L 73.394531 136.695312 L 72.992188 137.097656 L 71.488281 137.097656 L 70.285156 134.988281 L 69.785156 134.082031 L 66.074219 130.363281 L 65.976562 130.160156 L 65.976562 95.472656 L 64.671875 94.96875 L 62.96875 94.164062 L 62.363281 93.660156 L 62.265625 93.460938 L 61.460938 93.257812 L 60.058594 92.054688 L 59.054688 91.347656 L 58.054688 90.34375 L 57.753906 89.738281 L 57.351562 89.339844 L 57.351562 89.136719 L 57.152344 89.136719 L 57.152344 88.9375 L 56.851562 88.835938 L 56.449219 88.03125 L 55.847656 87.125 L 55.546875 86.421875 L 54.84375 85.113281 L 54.644531 84.109375 L 54.34375 83.203125 L 54.144531 82.5 L 54.144531 79.886719 L 53.941406 79.585938 L 53.941406 77.976562 L 54.144531 77.070312 L 54.144531 75.363281 L 54.34375 75.160156 L 54.445312 74.15625 L 54.945312 73.25 Z M 18.25 91.148438 L 24.363281 91.148438 L 24.867188 91.652344 L 25.265625 92.253906 L 25.867188 93.863281 L 26.871094 95.773438 L 27.273438 96.578125 L 27.773438 97.28125 L 28.574219 98.890625 L 29.378906 100.097656 L 30.078125 101.101562 L 31.382812 103.113281 L 31.984375 103.917969 L 33.085938 105.324219 L 34.089844 106.53125 L 34.792969 107.4375 L 35.492188 108.140625 L 35.492188 108.339844 L 35.894531 108.542969 L 40.207031 112.867188 L 41.109375 113.570312 L 42.414062 114.574219 L 43.414062 115.378906 L 44.21875 115.984375 L 46.023438 117.191406 L 47.125 117.894531 L 48.429688 118.699219 L 49.53125 119.300781 L 51.636719 120.507812 L 52.839844 121.011719 L 55.046875 122.015625 L 55.949219 122.417969 L 58.054688 123.121094 L 58.453125 123.425781 L 60.058594 123.925781 L 60.558594 124.128906 L 61.5625 124.328125 L 62.265625 124.832031 L 62.265625 131.167969 L 61.761719 131.570312 L 59.257812 131.570312 L 58.855469 131.367188 L 57.453125 131.066406 L 55.648438 130.363281 L 54.242188 129.859375 L 52.339844 129.054688 L 50.632812 128.25 L 50.132812 128.050781 L 49.429688 127.847656 L 47.828125 127.042969 L 46.023438 126.039062 L 42.414062 123.925781 L 40.507812 122.621094 L 39.40625 121.816406 L 38 120.808594 L 36.796875 119.804688 L 34.792969 118.195312 L 33.085938 116.585938 L 31.582031 115.078125 L 30.882812 114.273438 L 30.078125 113.570312 L 28.976562 112.363281 L 28.375 111.660156 L 28.074219 111.257812 L 28.074219 111.054688 L 27.773438 110.957031 L 26.972656 109.949219 L 25.867188 108.542969 L 25.167969 107.539062 L 24.164062 106.027344 L 23.363281 104.921875 L 22.960938 104.320312 L 22.460938 103.3125 L 21.957031 102.710938 L 21.15625 101 L 20.453125 99.996094 L 19.753906 98.589844 L 19.152344 96.980469 L 18.347656 95.472656 L 17.746094 93.5625 L 17.648438 92.855469 L 17.648438 92.054688 L 17.949219 91.25 Z M 126.234375 91.148438 L 132.351562 91.148438 L 132.851562 91.449219 L 132.851562 94.367188 L 132.550781 94.96875 L 132.25 95.972656 L 131.347656 97.683594 L 130.246094 99.996094 L 128.941406 102.511719 L 127.839844 104.320312 L 127.4375 104.824219 L 126.835938 105.929688 L 125.832031 107.234375 L 125.132812 108.242188 L 124.429688 109.046875 L 123.828125 109.949219 L 123.125 110.65625 L 122.824219 111.257812 L 122.125 111.960938 L 121.621094 112.566406 L 120.820312 113.269531 L 119.917969 114.273438 L 119.214844 114.878906 L 118.714844 115.480469 L 117.914062 116.183594 L 116.609375 117.59375 L 115.808594 118.296875 L 115.003906 119.101562 L 114.203125 119.601562 L 113.101562 120.710938 L 111.996094 121.414062 L 111.195312 122.117188 L 110.089844 122.820312 L 109.488281 123.324219 L 108.085938 124.128906 L 106.082031 125.433594 L 104.777344 126.238281 L 101.570312 127.847656 L 100.367188 128.351562 L 99.664062 128.652344 L 97.960938 129.457031 L 97.15625 129.65625 L 96.554688 129.65625 L 96.554688 129.859375 L 95.652344 130.261719 L 94.851562 130.460938 L 93.648438 130.964844 L 92.34375 131.367188 L 91.644531 131.46875 L 91.441406 131.570312 L 89.9375 131.667969 L 89.238281 131.667969 L 88.734375 131.167969 L 88.734375 124.730469 L 88.9375 124.328125 L 91.042969 123.828125 L 91.945312 123.425781 L 93.546875 122.820312 L 94.449219 122.519531 L 96.15625 121.914062 L 97.757812 121.113281 L 99.863281 120.207031 L 100.867188 119.503906 L 102.570312 118.597656 L 103.675781 117.894531 L 105.277344 116.886719 L 107.183594 115.582031 L 108.085938 114.878906 L 108.886719 114.171875 L 109.390625 113.769531 L 110.191406 113.167969 L 111.59375 111.859375 L 112.496094 111.257812 L 114.503906 109.246094 L 115.105469 108.339844 L 116.207031 107.136719 L 116.910156 106.332031 L 117.210938 105.828125 L 118.214844 104.824219 L 118.515625 104.21875 L 119.617188 102.910156 L 120.21875 101.90625 L 120.921875 101 L 122.222656 98.789062 L 123.027344 97.480469 L 123.929688 95.773438 L 124.628906 94.566406 L 125.230469 92.957031 L 126.035156 91.25 Z M 126.234375 91.148438 "/>
<path style=" stroke:none;fill-rule:nonzero;fill:rgb(30.980393%,30.980393%,30.980393%);fill-opacity:1;" d="M 48.828125 72.546875 L 50.132812 72.546875 L 50.535156 72.847656 L 50.632812 73.148438 L 50.632812 75.058594 L 50.332031 75.363281 L 49.832031 76.367188 L 49.632812 76.566406 L 49.429688 77.574219 L 49.230469 77.976562 L 49.230469 78.679688 L 49.03125 79.082031 L 49.03125 80.289062 L 48.730469 80.488281 L 48.730469 86.019531 L 49.03125 86.625 L 49.128906 87.628906 L 49.832031 89.738281 L 50.332031 90.644531 L 51.636719 93.257812 L 52.238281 94.0625 L 52.738281 95.167969 L 53.039062 95.773438 L 53.640625 96.578125 L 54.644531 98.386719 L 55.445312 99.796875 L 56.148438 100.902344 L 56.75 102.007812 L 57.753906 103.617188 L 58.453125 105.023438 L 59.054688 105.828125 L 59.859375 107.4375 L 60.660156 108.742188 L 61.964844 111.15625 L 62.664062 112.464844 L 62.867188 113.066406 L 63.269531 113.871094 L 63.46875 114.574219 L 63.871094 114.777344 L 63.96875 116.085938 L 63.667969 116.789062 L 63.367188 116.988281 L 61.664062 116.988281 L 60.359375 116.484375 L 60.058594 116.285156 L 58.855469 115.984375 L 56.949219 115.378906 L 56.550781 115.078125 L 55.546875 114.675781 L 54.445312 113.972656 L 53.640625 113.671875 L 52.738281 113.066406 L 51.636719 112.261719 L 50.835938 111.761719 L 50.234375 111.15625 L 49.429688 110.753906 L 49.128906 110.453125 L 49.128906 110.253906 L 48.730469 110.050781 L 48.730469 109.851562 L 48.328125 109.648438 L 45.21875 106.53125 L 44.917969 105.828125 L 44.519531 105.527344 L 44.519531 105.324219 L 44.316406 105.324219 L 43.316406 103.714844 L 43.316406 103.515625 L 43.113281 103.515625 L 42.511719 102.511719 L 41.511719 100.296875 L 40.910156 98.589844 L 40.609375 97.785156 L 40.40625 96.980469 L 40.40625 96.175781 L 40.207031 95.875 L 40.207031 87.730469 L 40.507812 87.226562 L 40.40625 86.925781 L 40.507812 86.625 L 40.40625 86.320312 L 40.609375 86.019531 L 40.910156 84.914062 L 41.609375 83.40625 L 42.011719 82.5 L 42.8125 80.890625 L 43.515625 79.785156 L 44.21875 78.480469 L 45.019531 77.574219 L 45.722656 76.46875 L 45.722656 76.164062 L 46.222656 75.863281 L 47.226562 74.457031 L 47.925781 73.449219 Z M 101.066406 72.847656 L 102.070312 72.847656 L 102.472656 73.050781 L 103.171875 73.851562 L 103.574219 74.253906 L 103.773438 74.757812 L 104.675781 75.664062 L 105.179688 76.566406 L 105.78125 77.371094 L 106.480469 78.480469 L 107.183594 79.484375 L 107.585938 79.988281 L 108.1875 81.195312 L 108.488281 81.59375 L 109.289062 83.203125 L 109.589844 83.707031 L 109.992188 85.316406 L 110.390625 86.421875 L 110.492188 87.730469 L 110.792969 88.03125 L 110.792969 96.074219 L 110.492188 96.175781 L 110.492188 96.878906 L 110.390625 97.382812 L 110.191406 97.382812 L 110.191406 98.085938 L 109.890625 99.089844 L 109.691406 99.796875 L 108.488281 102.109375 L 107.683594 103.617188 L 107.382812 104.019531 L 107.082031 104.519531 L 105.878906 106.128906 L 105.078125 107.035156 L 104.277344 108.140625 L 103.976562 108.242188 L 103.875 108.542969 L 103.074219 109.246094 L 102.269531 110.152344 L 101.667969 110.351562 L 100.667969 111.359375 L 99.964844 111.660156 L 99.164062 112.363281 L 98.058594 113.066406 L 97.058594 113.769531 L 95.453125 114.574219 L 94.75 114.878906 L 93.75 115.378906 L 92.847656 115.683594 L 91.742188 115.984375 L 91.042969 116.285156 L 90.441406 116.585938 L 89.4375 116.6875 L 88.9375 116.988281 L 87.632812 116.988281 L 87.230469 116.789062 L 87.03125 116.386719 L 87.03125 115.078125 L 87.832031 113.46875 L 88.734375 111.761719 L 89.839844 109.449219 L 91.042969 107.335938 L 91.542969 106.53125 L 91.945312 106.027344 L 92.746094 104.21875 L 93.347656 103.414062 L 94.050781 102.207031 L 95.050781 100.296875 L 95.753906 99.292969 L 96.054688 98.6875 L 96.855469 97.382812 L 97.457031 96.277344 L 98.460938 94.566406 L 99.0625 93.660156 L 99.464844 92.65625 L 100.066406 91.851562 L 100.867188 90.242188 L 101.269531 89.238281 L 101.871094 87.628906 L 102.171875 86.320312 L 102.371094 85.617188 L 102.472656 80.488281 L 102.171875 80.390625 L 102.070312 79.886719 L 101.96875 79.28125 L 101.667969 78.878906 L 101.667969 78.175781 L 101.46875 77.675781 L 101.167969 76.769531 L 100.96875 76.066406 L 100.464844 74.757812 L 100.464844 73.449219 L 100.867188 72.949219 Z M 119.417969 66.011719 L 126.636719 66.011719 L 127.035156 66.414062 L 127.839844 67.820312 L 128.839844 70.132812 L 129.34375 71.136719 L 130.042969 71.640625 L 130.246094 71.640625 L 130.644531 70.335938 L 132.449219 66.816406 L 133.152344 66.011719 L 140.773438 66.011719 L 140.875 66.414062 L 140.773438 68.824219 L 140.472656 69.128906 L 139.070312 69.832031 L 138.867188 69.832031 L 138.96875 80.589844 L 139.371094 80.792969 L 139.972656 80.992188 L 141.175781 81.195312 L 141.375 81.496094 L 141.375 83.105469 L 141.175781 83.707031 L 141.074219 83.910156 L 140.875 83.910156 L 140.671875 84.308594 L 140.472656 84.511719 L 134.355469 84.613281 L 130.847656 84.613281 L 130.445312 84.210938 L 130.144531 83.605469 L 130.144531 81.59375 L 128.238281 81.59375 L 127.4375 80.890625 L 127.035156 79.585938 L 126.335938 78.078125 L 125.832031 77.171875 L 125.433594 76.96875 L 125.53125 79.183594 L 125.832031 80.289062 L 126.335938 80.691406 L 127.539062 81.195312 L 128.140625 81.898438 L 128.140625 83.105469 L 127.839844 83.808594 L 127.539062 84.410156 L 126.835938 84.613281 L 120.117188 84.613281 L 119.515625 84.410156 L 119.515625 84.210938 L 119.015625 84.007812 L 118.914062 83.808594 L 118.914062 82.097656 L 119.316406 81.496094 L 119.917969 80.992188 L 120.519531 80.992188 L 121.222656 80.390625 L 121.222656 70.433594 L 120.71875 69.628906 L 119.316406 69.128906 L 118.914062 68.625 L 118.914062 66.914062 L 119.117188 66.414062 Z M 132.449219 77.171875 L 131.546875 78.878906 L 130.445312 81.09375 L 130.546875 81.292969 L 131.449219 80.890625 L 132.148438 80.792969 L 132.652344 79.886719 L 132.652344 77.273438 Z M 20.152344 65.609375 L 20.554688 65.707031 L 20.554688 65.910156 L 21.558594 66.109375 L 22.160156 66.011719 L 23.0625 65.609375 L 24.664062 65.707031 L 25.066406 65.910156 L 25.167969 66.109375 L 25.167969 72.746094 L 24.265625 73.753906 L 23.863281 73.953125 L 24.265625 74.054688 L 27.671875 74.15625 L 28.074219 74.457031 L 28.175781 74.960938 L 28.175781 76.265625 L 26.46875 77.976562 L 25.46875 78.078125 L 25.367188 82.703125 L 24.566406 83.507812 L 23.460938 84.007812 L 21.859375 84.511719 L 20.957031 84.613281 L 20.453125 84.613281 L 20.253906 84.8125 L 16.242188 84.8125 L 15.941406 84.613281 L 15.039062 84.511719 L 13.335938 83.808594 L 12.734375 83.40625 L 11.230469 81.996094 L 10.527344 81.195312 L 9.824219 80.1875 L 9.523438 79.886719 L 9.125 78.078125 L 8.921875 77.574219 L 8.921875 76.871094 L 8.621094 75.964844 L 8.621094 74.558594 L 8.824219 73.953125 L 9.023438 72.34375 L 9.425781 71.136719 L 9.925781 70.132812 L 10.527344 69.328125 L 10.929688 68.726562 L 12.132812 67.519531 L 13.4375 66.714844 L 14.839844 66.011719 L 15.84375 65.808594 L 15.941406 65.707031 Z M 17.648438 70.535156 L 16.644531 70.9375 L 15.742188 71.640625 L 15.039062 72.648438 L 14.4375 74.054688 L 14.4375 76.367188 L 14.839844 77.472656 L 15.242188 77.976562 L 15.542969 78.480469 L 16.242188 79.082031 L 18.449219 80.1875 L 18.949219 80.085938 L 19.152344 79.886719 L 20.152344 79.683594 L 20.253906 79.585938 L 20.355469 78.078125 L 20.253906 77.976562 L 17.648438 77.976562 L 17.546875 77.675781 L 17.546875 74.757812 L 17.847656 74.253906 L 18.046875 74.054688 L 18.851562 73.953125 L 21.355469 73.953125 L 22.460938 73.851562 L 22.257812 73.351562 L 21.457031 71.941406 L 20.957031 71.441406 L 20.054688 70.835938 L 19.25 70.535156 Z M 102.671875 48.714844 L 103.171875 48.816406 L 103.675781 49.117188 L 105.980469 50.125 L 106.78125 50.726562 L 108.386719 51.734375 L 109.390625 52.636719 L 110.191406 53.441406 L 110.792969 53.742188 L 111.59375 54.546875 L 112.097656 55.351562 L 113.101562 56.359375 L 113.703125 57.164062 L 114.804688 58.671875 L 115.605469 60.179688 L 116.007812 60.679688 L 116.410156 61.484375 L 116.808594 62.691406 L 117.3125 64.300781 L 117.511719 65.105469 L 117.710938 65.808594 L 117.8125 66.714844 L 118.011719 66.914062 L 118.011719 72.648438 L 117.3125 73.449219 L 116.710938 73.652344 L 116.007812 73.351562 L 115.304688 72.648438 L 114.503906 70.835938 L 113.5 69.53125 L 113 68.726562 L 112.496094 68.121094 L 112.296875 67.621094 L 111.796875 67.21875 L 111.09375 66.414062 L 110.292969 65.609375 L 109.1875 64.90625 L 108.585938 64.402344 L 107.984375 64 L 107.886719 63.699219 L 107.585938 63.597656 L 107.585938 63.394531 L 107.183594 63.496094 L 105.578125 62.191406 L 104.476562 61.585938 L 103.375 60.78125 L 102.070312 59.976562 L 100.765625 59.074219 L 100.765625 58.871094 L 100.164062 58.671875 L 99.5625 58.167969 L 99.5625 57.964844 L 99.261719 57.867188 L 98.660156 57.164062 L 97.859375 56.457031 L 97.457031 56.054688 L 97.457031 54.847656 L 98.359375 53.84375 L 98.5625 53.644531 L 101.46875 53.644531 L 101.667969 53.742188 L 101.667969 53.945312 L 103.375 53.945312 L 103.875 54.246094 L 104.878906 54.546875 L 104.578125 54.046875 L 101.96875 51.429688 L 101.96875 51.230469 L 101.46875 51.332031 L 101.066406 50.828125 L 100.765625 50.625 L 100.765625 49.320312 L 101.066406 48.816406 Z M 48.027344 48.714844 L 49.730469 48.714844 L 50.234375 49.320312 L 50.332031 50.324219 L 50.234375 50.625 L 49.730469 51.027344 L 49.230469 51.027344 L 49.230469 51.230469 L 49.03125 51.230469 L 48.828125 51.632812 L 47.925781 52.132812 L 47.828125 52.335938 L 47.625 52.335938 L 47.425781 52.738281 L 46.625 53.441406 L 45.921875 54.347656 L 45.820312 54.546875 L 46.523438 54.347656 L 47.425781 54.246094 L 47.625 54.046875 L 48.128906 53.945312 L 49.53125 53.945312 L 49.632812 53.644531 L 52.4375 53.644531 L 53.039062 54.347656 L 53.140625 54.75 L 53.140625 56.359375 L 52.4375 57.164062 L 51.234375 58.367188 L 50.234375 58.972656 L 49.53125 59.574219 L 47.527344 60.78125 L 46.222656 61.585938 L 44.71875 62.492188 L 43.515625 63.394531 L 42.914062 63.796875 L 41.8125 64.703125 L 41.007812 65.40625 L 39.605469 66.816406 L 38.902344 67.417969 L 38.203125 68.222656 L 37.699219 68.726562 L 37.199219 69.628906 L 36.394531 71.039062 L 35.996094 71.84375 L 35.292969 73.050781 L 35.191406 73.148438 L 34.191406 73.25 L 33.386719 73.148438 L 33.085938 72.746094 L 33.085938 66.511719 L 33.289062 66.210938 L 33.289062 65.105469 L 33.488281 64.703125 L 33.6875 63.597656 L 33.890625 62.992188 L 34.191406 62.289062 L 34.890625 60.984375 L 35.09375 60.277344 L 35.492188 59.574219 L 36.296875 58.269531 L 37.296875 56.761719 L 37.699219 56.257812 L 38.300781 55.753906 L 39.003906 54.949219 L 41.308594 52.636719 L 41.511719 52.636719 L 41.511719 52.4375 L 43.015625 51.332031 L 44.71875 50.324219 L 45.320312 49.921875 L 46.722656 49.21875 L 47.527344 48.917969 Z M 73.695312 68.421875 L 77.203125 68.421875 L 78.707031 68.726562 L 78.707031 68.925781 L 79.710938 69.226562 L 81.316406 69.933594 L 82.917969 70.734375 L 83.722656 71.238281 L 84.023438 71.640625 L 84.121094 71.941406 L 84.121094 77.171875 L 83.820312 77.875 L 83.421875 78.679688 L 82.316406 79.785156 L 80.714844 80.691406 L 79.710938 80.992188 L 77.90625 81.292969 L 72.492188 81.292969 L 71.992188 80.890625 L 71.789062 80.890625 L 71.789062 81.09375 L 70.988281 81.09375 L 68.683594 79.785156 L 68.683594 79.585938 L 68.28125 79.382812 L 67.679688 78.679688 L 67.378906 78.078125 L 66.878906 77.273438 L 66.878906 71.84375 L 67.578125 71.039062 L 68.683594 70.335938 L 70.6875 69.53125 L 72.292969 68.824219 L 72.59375 68.625 Z M 73.695312 68.421875 "/>
<path style=" stroke:none;fill-rule:nonzero;fill:rgb(30.980393%,30.980393%,30.980393%);fill-opacity:1;" d="M 42.613281 65.003906 L 44.117188 65.003906 L 44.617188 65.308594 L 44.617188 66.816406 L 44.117188 67.71875 L 43.917969 68.324219 L 43.414062 69.128906 L 43.214844 69.226562 L 43.015625 70.234375 L 42.714844 70.636719 L 42.511719 71.039062 L 42.511719 71.84375 L 42.414062 72.144531 L 42.210938 72.144531 L 42.210938 73.148438 L 41.910156 73.652344 L 41.8125 74.757812 L 41.511719 74.757812 L 41.511719 76.066406 L 41.410156 77.070312 L 41.109375 77.171875 L 41.109375 79.183594 L 41.007812 80.992188 L 40.609375 81.496094 L 40.40625 81.996094 L 39.90625 83.105469 L 39.203125 84.613281 L 38.902344 85.515625 L 38.804688 86.421875 L 38.601562 86.925781 L 38.601562 93.257812 L 38.402344 93.863281 L 38.101562 94.0625 L 36.394531 94.0625 L 35.894531 93.460938 L 35.492188 92.65625 L 35.292969 92.453125 L 35.09375 91.449219 L 34.691406 90.542969 L 34.589844 89.738281 L 34.289062 89.136719 L 34.089844 88.433594 L 33.890625 87.929688 L 33.890625 87.425781 L 33.589844 87.125 L 33.589844 85.417969 L 33.386719 85.214844 L 33.289062 84.710938 L 33.386719 79.28125 L 33.589844 78.679688 L 33.589844 77.773438 L 33.890625 77.070312 L 33.988281 76.367188 L 34.992188 74.457031 L 35.492188 73.449219 L 35.59375 72.949219 L 36.195312 72.144531 L 36.597656 71.640625 L 36.996094 70.9375 L 37.902344 69.832031 L 38.703125 69.027344 L 39.203125 68.421875 L 40.007812 67.71875 L 40.910156 66.714844 L 41.710938 66.011719 L 42.3125 65.207031 Z M 106.78125 65.308594 L 108.1875 65.308594 L 108.6875 65.609375 L 109.289062 66.3125 L 110.492188 67.117188 L 112.597656 69.226562 L 113.199219 70.234375 L 113.601562 70.734375 L 114.304688 71.640625 L 114.90625 72.546875 L 115.207031 73.148438 L 115.90625 74.15625 L 116.410156 75.160156 L 116.609375 75.964844 L 116.910156 76.566406 L 117.011719 77.574219 L 117.210938 77.773438 L 117.3125 79.484375 L 117.613281 79.785156 L 117.613281 84.511719 L 117.3125 84.914062 L 117.210938 86.523438 L 117.011719 86.722656 L 117.011719 87.628906 L 116.808594 88.132812 L 116.710938 89.136719 L 116.507812 89.4375 L 116.308594 90.042969 L 116.109375 90.34375 L 116.007812 91.148438 L 115.507812 91.550781 L 115.304688 92.757812 L 114.605469 94.164062 L 114.304688 94.464844 L 113.199219 94.464844 L 112.597656 94.164062 L 112.496094 93.964844 L 112.496094 89.035156 L 112.398438 88.03125 L 112.097656 87.628906 L 111.996094 86.421875 L 111.796875 86.019531 L 111.59375 84.511719 L 111.292969 83.605469 L 110.292969 81.59375 L 110.089844 81.292969 L 110.089844 80.890625 L 109.890625 80.890625 L 109.789062 80.085938 L 109.789062 78.078125 L 109.589844 77.574219 L 109.488281 75.363281 L 109.289062 74.859375 L 109.1875 73.652344 L 108.886719 73.449219 L 108.789062 72.34375 L 108.488281 71.742188 L 108.386719 71.238281 L 108.085938 70.835938 L 107.785156 69.628906 L 106.984375 68.222656 L 106.582031 67.417969 L 106.28125 67.117188 L 106.28125 65.707031 Z M 80.613281 22.273438 L 85.527344 22.273438 L 86.828125 22.773438 L 87.730469 23.378906 L 88.035156 23.980469 L 88.035156 24.886719 L 87.730469 25.386719 L 87.53125 25.488281 L 85.226562 25.589844 L 87.53125 25.691406 L 88.636719 25.890625 L 89.636719 26.496094 L 90.742188 27.097656 L 91.140625 27.5 L 91.242188 27.800781 L 91.242188 28.808594 L 90.839844 29.511719 L 90.539062 29.8125 L 89.839844 29.914062 L 88.9375 29.914062 L 88.535156 30.113281 L 87.53125 30.214844 L 85.527344 31.21875 L 84.925781 31.722656 L 84.324219 32.023438 L 83.621094 32.730469 L 82.917969 33.53125 L 82.519531 34.136719 L 82.316406 34.335938 L 82.117188 34.941406 L 81.917969 34.941406 L 81.714844 35.445312 L 81.316406 36.148438 L 81.015625 36.953125 L 80.511719 38.359375 L 80.113281 38.863281 L 79.210938 38.960938 L 78.707031 38.863281 L 78.308594 38.460938 L 78.105469 37.855469 L 77.605469 37.050781 L 77.503906 36.347656 L 77.304688 36.148438 L 77.105469 35.445312 L 76.902344 34.839844 L 76.601562 34.136719 L 76.601562 33.53125 L 76.402344 33.230469 L 76.300781 31.21875 L 76 30.816406 L 76 28.40625 L 76.300781 28.003906 L 76.300781 27.199219 L 76.503906 26.496094 L 76.902344 25.488281 L 77.40625 24.484375 L 77.90625 23.980469 L 78.609375 23.378906 L 80.210938 22.574219 Z M 65.074219 22.273438 L 69.984375 22.273438 L 71.089844 22.671875 L 71.691406 23.175781 L 72.292969 23.578125 L 73.292969 24.484375 L 73.996094 25.386719 L 74.296875 25.890625 L 74.496094 26.796875 L 74.699219 27.199219 L 74.796875 28.40625 L 75 28.605469 L 75.097656 29.410156 L 75.097656 30.417969 L 74.796875 30.917969 L 74.699219 33.230469 L 74.496094 33.433594 L 74.398438 34.335938 L 73.996094 34.839844 L 73.59375 36.246094 L 73.195312 37.152344 L 72.992188 37.855469 L 72.691406 37.957031 L 72.492188 38.359375 L 72.089844 38.660156 L 70.886719 38.5625 L 70.1875 37.855469 L 70.085938 37.152344 L 70.085938 36.648438 L 69.886719 36.648438 L 69.382812 35.445312 L 68.984375 34.640625 L 68.28125 33.933594 L 67.878906 33.230469 L 66.675781 32.023438 L 65.875 31.523438 L 65.472656 31.121094 L 64.269531 30.617188 L 63.269531 30.417969 L 63.269531 30.214844 L 62.363281 30.015625 L 62.265625 29.914062 L 60.460938 29.8125 L 59.65625 28.90625 L 59.65625 27.703125 L 60.058594 27.199219 L 60.257812 27.199219 L 60.257812 26.996094 L 61.0625 26.59375 L 61.363281 26.292969 L 62.363281 25.992188 L 62.566406 25.789062 L 63.667969 25.589844 L 63.167969 25.386719 L 62.867188 24.785156 L 62.96875 23.78125 L 63.570312 23.074219 L 64.371094 22.671875 Z M 101.367188 35.644531 L 102.773438 35.644531 L 103.074219 35.847656 L 105.078125 35.945312 L 105.78125 36.246094 L 106.882812 36.75 L 106.882812 36.953125 L 107.785156 37.253906 L 108.789062 37.65625 L 111.59375 40.472656 L 112.195312 41.375 L 112.699219 42.28125 L 113.5 43.789062 L 113.402344 44.390625 L 113.703125 45.097656 L 113.703125 46.503906 L 113.101562 47.308594 L 113 47.410156 L 111.695312 47.410156 L 111.195312 47.007812 L 111.195312 46.402344 L 110.492188 46.304688 L 110.292969 46.101562 L 109.390625 45.800781 L 108.988281 45.5 L 108.1875 45.097656 L 107.484375 44.894531 L 106.984375 44.792969 L 105.878906 44.792969 L 105.578125 44.59375 L 105.578125 44.390625 L 104.476562 44.492188 L 101.667969 44.492188 L 101.066406 44.191406 L 100.265625 44.191406 L 99.964844 43.890625 L 98.960938 43.386719 L 97.757812 42.28125 L 96.15625 40.671875 L 96.054688 40.167969 L 96.15625 38.359375 L 96.855469 37.65625 L 97.058594 37.65625 L 97.257812 37.253906 L 97.457031 37.253906 L 97.457031 37.050781 L 98.761719 36.246094 L 99.464844 36.046875 L 99.5625 35.945312 L 101.269531 35.945312 Z M 45.722656 35.847656 L 51.035156 35.945312 L 51.738281 36.246094 L 52.738281 36.75 L 53.941406 37.65625 L 54.644531 38.257812 L 54.746094 38.863281 L 54.746094 40.167969 L 54.445312 40.371094 L 54.542969 40.875 L 54.242188 41.375 L 53.441406 42.078125 L 52.941406 42.683594 L 51.535156 43.488281 L 50.632812 43.992188 L 50.234375 44.191406 L 49.230469 44.292969 L 48.828125 44.492188 L 45.519531 44.492188 L 44.917969 44.792969 L 44.617188 44.695312 L 43.917969 44.792969 L 43.515625 44.894531 L 43.414062 44.996094 L 42.414062 45.097656 L 41.410156 45.699219 L 39.90625 46.503906 L 39.605469 46.804688 L 39.40625 46.804688 L 39.203125 47.207031 L 39.003906 47.410156 L 37.699219 47.410156 L 37.5 47.308594 L 37.5 47.105469 L 37.199219 47.007812 L 37.199219 44.390625 L 37.398438 44.089844 L 37.597656 43.285156 L 38.203125 42.28125 L 38.804688 41.074219 L 39.503906 40.070312 L 41.8125 37.757812 L 42.714844 37.152344 L 43.617188 36.851562 L 44.417969 36.347656 L 45.320312 36.148438 Z M 45.722656 35.847656 "/>
<path style=" stroke:none;fill-rule:nonzero;fill:rgb(30.980393%,30.980393%,30.980393%);fill-opacity:1;" d="M 72.792969 21.367188 L 78.207031 21.367188 L 78.507812 21.667969 L 78.609375 22.070312 L 78.609375 23.175781 L 78.105469 23.78125 L 77.304688 24.382812 L 76.300781 25.789062 L 74.898438 25.789062 L 74.097656 25.1875 L 71.992188 23.074219 L 71.992188 22.371094 L 72.390625 21.667969 Z M 72.792969 21.367188 "/>
</g>
</svg>
